<svg width="35" height="36" viewBox="0 0 35 36" fill="none" xmlns="http://www.w3.org/2000/svg">
<path d="M34.4998 18.1505C34.4998 27.5422 26.8886 35.1555 17.4999 35.1555C8.11126 35.1555 0.5 27.5422 0.5 18.1505C0.5 8.75877 8.11126 1.14551 17.4999 1.14551C26.8886 1.14551 34.4998 8.75877 34.4998 18.1505Z" stroke="#D6D6D6"/>
<path fill-rule="evenodd" clip-rule="evenodd" d="M20.3888 9.17383C23.0954 9.17383 24.6481 10.5522 24.6481 12.9535V24.8868C24.6481 25.3876 24.3976 25.8383 23.9763 26.0903C23.5566 26.3431 23.0507 26.3481 22.6262 26.1018L17.8706 23.3377L13.0711 26.1075C12.8636 26.2274 12.6362 26.2881 12.408 26.2881C12.1726 26.2881 11.9373 26.2233 11.7234 26.0936C11.3029 25.8415 11.0524 25.3908 11.0524 24.8909V12.8032C11.0524 10.4964 12.6059 9.17383 15.3149 9.17383H20.3888ZM20.3888 10.4053H15.3149C13.281 10.4053 12.2492 11.2114 12.2492 12.8032V24.8909C12.2492 24.9681 12.2923 25.0099 12.3282 25.0313C12.3641 25.0543 12.4208 25.0707 12.4862 25.0329L17.5785 22.0939C17.7605 21.9897 17.9831 21.9888 18.1658 22.0947L23.2142 25.0288C23.2805 25.0682 23.3371 25.0502 23.373 25.028C23.4089 25.0058 23.4512 24.964 23.4512 24.8868L23.4509 12.8599C23.4449 12.1534 23.312 10.4053 20.3888 10.4053ZM20.7389 14.6976C21.0693 14.6976 21.3374 14.9734 21.3374 15.3133C21.3374 15.6532 21.0693 15.929 20.7389 15.929H14.8998C14.5694 15.929 14.3013 15.6532 14.3013 15.3133C14.3013 14.9734 14.5694 14.6976 14.8998 14.6976H20.7389Z" fill="#CBCBCB"/>
</svg>
