<svg width="25" height="25" viewBox="0 0 25 25" fill="none" xmlns="http://www.w3.org/2000/svg">
<path d="M3.17372 11.2791C2.41932 11.2791 2.10438 10.3098 2.71717 9.86304L12.0409 3.08081C12.1741 2.98326 12.3348 2.93066 12.4999 2.93066C12.665 2.93066 12.8257 2.98326 12.9589 3.08081L22.2826 9.86304C22.8954 10.3074 22.5805 11.2791 21.8236 11.2791H20.3124V20.4099H22.0702C22.1776 20.4099 22.2655 20.4978 22.2655 20.6052V21.8748C22.2655 21.9822 22.1776 22.0701 22.0702 22.0701H2.92958C2.82215 22.0701 2.73426 21.9822 2.73426 21.8748V20.6052C2.73426 20.4978 2.82215 20.4099 2.92958 20.4099H4.68739V11.2791H3.17372ZM12.4999 4.802L5.88124 9.61646H19.1185L12.4999 4.802ZM18.5546 11.2791H15.6981V20.4099H18.5546V11.2791ZM13.9403 11.2791H11.0839V20.4099H13.9403V11.2791ZM6.4452 20.4099H9.32606V11.2791H6.4452V20.4099Z" fill="black"/>
</svg>
