<svg width="13" height="13" viewBox="0 0 13 13" fill="none" xmlns="http://www.w3.org/2000/svg">
<path d="M3.84794 7.45542C4.76445 7.45542 5.49896 8.19708 5.49896 9.12009V11.336C5.49896 12.2525 4.76445 13 3.84794 13H1.6509C0.740889 13 -0.00012207 12.2525 -0.00012207 11.336V9.12009C-0.00012207 8.19708 0.740889 7.45542 1.6509 7.45542H3.84794ZM11.3491 7.45542C12.2591 7.45542 13.0001 8.19708 13.0001 9.12009V11.336C13.0001 12.2525 12.2591 13 11.3491 13H9.15208C8.23557 13 7.50106 12.2525 7.50106 11.336V9.12009C7.50106 8.19708 8.23557 7.45542 9.15208 7.45542H11.3491ZM3.84794 0C4.76445 0 5.49896 0.747511 5.49896 1.66468V3.88056C5.49896 4.80357 4.76445 5.54458 3.84794 5.54458H1.6509C0.740889 5.54458 -0.00012207 4.80357 -0.00012207 3.88056V1.66468C-0.00012207 0.747511 0.740889 0 1.6509 0H3.84794ZM11.3491 0C12.2591 0 13.0001 0.747511 13.0001 1.66468V3.88056C13.0001 4.80357 12.2591 5.54458 11.3491 5.54458H9.15208C8.23557 5.54458 7.50106 4.80357 7.50106 3.88056V1.66468C7.50106 0.747511 8.23557 0 9.15208 0H11.3491Z" fill="#D2F34C"/>
</svg>
