<svg width="22" height="22" viewBox="0 0 22 22" fill="none" xmlns="http://www.w3.org/2000/svg">
<g clip-path="url(#clip0_519_2053)">
<path d="M6.29078 16.2245C6.02155 16.2249 5.76157 16.1263 5.56038 15.9473L-0.00561523 10.9995L5.86948 5.77675C6.08847 5.58941 6.37223 5.49549 6.65974 5.51519C6.94726 5.53489 7.21555 5.66664 7.40694 5.88209C7.59833 6.09755 7.69752 6.37951 7.68319 6.66734C7.66885 6.95517 7.54213 7.22588 7.33029 7.42125L3.30539 10.9995L7.02118 14.3017C7.18812 14.4499 7.30606 14.6453 7.35932 14.862C7.41259 15.0787 7.39868 15.3065 7.31943 15.5152C7.24017 15.7238 7.09933 15.9034 6.91561 16.0301C6.73188 16.1568 6.51396 16.2246 6.29078 16.2245ZM16.1303 16.2223L22.0054 10.9995L16.4394 6.05175C16.2213 5.85803 15.9352 5.75888 15.644 5.77611C15.3529 5.79333 15.0804 5.92552 14.8867 6.1436C14.693 6.36167 14.5939 6.64777 14.6111 6.93895C14.6283 7.23012 14.7605 7.50253 14.9786 7.69625L18.6944 10.9995L14.6695 14.5767C14.4513 14.7705 14.3189 15.0429 14.3016 15.3342C14.2843 15.6255 14.3834 15.9117 14.5771 16.1299C14.7708 16.3482 15.0433 16.4805 15.3345 16.4978C15.6258 16.5152 15.9121 16.4161 16.1303 16.2223ZM10.9845 17.781L13.1845 4.58105C13.2126 4.43679 13.2116 4.28835 13.1814 4.14451C13.1512 4.00066 13.0924 3.86433 13.0087 3.74356C12.9249 3.62279 12.8178 3.52003 12.6936 3.44136C12.5695 3.36269 12.4308 3.30969 12.2858 3.2855C12.1409 3.26132 11.9925 3.26643 11.8495 3.30054C11.7066 3.33465 11.5719 3.39706 11.4535 3.4841C11.335 3.57113 11.2352 3.68102 11.16 3.80727C11.0847 3.93352 11.0355 4.07357 11.0153 4.21915L8.81528 17.4191C8.78715 17.5634 8.78822 17.7118 8.81842 17.8557C8.84861 17.9995 8.90733 18.1359 8.9911 18.2566C9.07487 18.3774 9.182 18.4802 9.30615 18.5588C9.4303 18.6375 9.56896 18.6905 9.71393 18.7147C9.85891 18.7389 10.0073 18.7338 10.1502 18.6997C10.2932 18.6655 10.4279 18.6031 10.5463 18.5161C10.6648 18.4291 10.7645 18.3192 10.8398 18.1929C10.9151 18.0667 10.9643 17.9266 10.9845 17.781Z" fill="black"/>
</g>
<defs>
<clipPath id="clip0_519_2053">
<rect width="22" height="22" fill="white"/>
</clipPath>
</defs>
</svg>
