<svg width="20" height="22" viewBox="0 0 20 22" fill="none" xmlns="http://www.w3.org/2000/svg">
<path opacity="0.4" d="M14.6193 0.950195H5.90303C2.74143 0.950195 0.900635 2.8014 0.900635 5.97339V16.7166C0.900635 19.9406 2.74143 21.7502 5.90303 21.7502H14.6193C17.8318 21.7502 19.6206 19.9406 19.6206 16.7166V5.97339C19.6206 2.8014 17.8318 0.950195 14.6193 0.950195Z" fill="white"/>
<path d="M6.18336 15.2407H14.337C14.7519 15.2823 15.065 15.6359 15.065 16.0623C15.065 16.4773 14.7519 16.8319 14.337 16.8735H6.18336C5.87136 16.9151 5.56976 16.7591 5.40336 16.4991C5.23696 16.2287 5.23696 15.8855 5.40336 15.6255C5.56976 15.3551 5.87136 15.2095 6.18336 15.2407ZM14.337 10.4973C14.7842 10.4973 15.1482 10.8623 15.1482 11.3095C15.1482 11.7567 14.7842 12.1207 14.337 12.1207H6.18336C5.73512 12.1207 5.37216 11.7567 5.37216 11.3095C5.37216 10.8623 5.73512 10.4973 6.18336 10.4973H14.337ZM9.29192 5.78711C9.74016 5.78711 10.1042 6.15111 10.1042 6.59727C10.1042 7.05591 9.74016 7.41991 9.29192 7.41991H6.18336C5.73512 7.41991 5.37216 7.05591 5.37216 6.60871C5.37216 6.16151 5.73512 5.79751 6.18336 5.79751V5.78711H9.29192Z" fill="white"/>
</svg>
