<svg width="24" height="24" viewBox="0 0 24 24" fill="none" xmlns="http://www.w3.org/2000/svg">
<path d="M3.29594 20.6023L9.65994 14.2383M17.6739 11.4083L15.7689 17.1233C15.7385 17.2149 15.6865 17.2979 15.6172 17.3651C15.5479 17.4323 15.4634 17.4817 15.3709 17.5093L3.69294 20.9803C3.58773 21.0116 3.47597 21.0134 3.36981 20.9855C3.26365 20.9576 3.16717 20.9012 3.09087 20.8223C3.01456 20.7434 2.96135 20.6451 2.93703 20.5381C2.91272 20.4311 2.91822 20.3194 2.95294 20.2153L6.74494 8.84133C6.77212 8.75966 6.81655 8.6848 6.87521 8.62182C6.93388 8.55884 7.0054 8.50922 7.08494 8.47633L12.4719 6.25833C12.5815 6.21309 12.7019 6.2013 12.8181 6.22444C12.9343 6.24757 13.0411 6.3046 13.1249 6.38833L17.5289 10.7933C17.6079 10.8722 17.6633 10.9715 17.689 11.0802C17.7146 11.1888 17.7094 11.3025 17.6739 11.4083V11.4083Z" stroke="black" stroke-width="1.5" stroke-linecap="round" stroke-linejoin="round"/>
<path d="M17.7918 11.0565L20.6198 8.22748C20.9948 7.85242 21.2054 7.34381 21.2054 6.81348C21.2054 6.28315 20.9948 5.77453 20.6198 5.39948L18.4998 3.27748C18.3141 3.09168 18.0936 2.94428 17.8509 2.84372C17.6082 2.74316 17.3481 2.69141 17.0853 2.69141C16.8226 2.69141 16.5625 2.74316 16.3198 2.84372C16.0771 2.94428 15.8566 3.09168 15.6708 3.27748L12.8428 6.10648M11.7808 12.1165C11.6415 11.9772 11.4761 11.8668 11.2941 11.7914C11.1121 11.7161 10.917 11.6773 10.72 11.6774C10.523 11.6774 10.3279 11.7162 10.1459 11.7917C9.96396 11.8671 9.79861 11.9776 9.65934 12.117C9.52007 12.2563 9.40962 12.4217 9.33427 12.6037C9.25892 12.7858 9.22017 12.9808 9.22021 13.1778C9.22026 13.3748 9.25911 13.5699 9.33454 13.7519C9.40997 13.9339 9.52051 14.0992 9.65984 14.2385C9.94124 14.5197 10.3228 14.6777 10.7207 14.6776C11.1186 14.6775 11.5001 14.5194 11.7813 14.238C12.0626 13.9566 12.2206 13.575 12.2205 13.1771C12.2204 12.7793 12.0622 12.3977 11.7808 12.1165Z" stroke="black" stroke-width="1.5" stroke-linecap="round" stroke-linejoin="round"/>
</svg>
