<svg width="107" height="15" viewBox="0 0 107 15" fill="none" xmlns="http://www.w3.org/2000/svg">
<path fill-rule="evenodd" clip-rule="evenodd" d="M8.33304 0.558331L9.84012 3.56913C9.98782 3.8647 10.2729 4.06965 10.6035 4.11708L13.9749 4.60237C14.8079 4.72263 15.1394 5.73216 14.5365 6.3106L12.0986 8.65318C11.859 8.88354 11.7499 9.21468 11.8066 9.5399L12.382 12.8471C12.5237 13.6652 11.6529 14.2894 10.9084 13.9024L7.89508 12.3398C7.59968 12.1865 7.24588 12.1865 6.94962 12.3398L3.93632 13.9024C3.1918 14.2894 2.32105 13.6652 2.4636 12.8471L3.03809 9.5399C3.09477 9.21468 2.98571 8.88354 2.74612 8.65318L0.308176 6.3106C-0.294655 5.73216 0.0368163 4.72263 0.869788 4.60237L4.24117 4.11708C4.57179 4.06965 4.85775 3.8647 5.00545 3.56913L6.51167 0.558331C6.88436 -0.18611 7.96035 -0.18611 8.33304 0.558331Z" fill="#FFCC4A"/>
<path fill-rule="evenodd" clip-rule="evenodd" d="M31.1778 0.558331L32.6848 3.56913C32.8325 3.8647 33.1176 4.06965 33.4483 4.11708L36.8196 4.60237C37.6526 4.72263 37.9841 5.73216 37.3813 6.3106L34.9433 8.65318C34.7037 8.88354 34.5947 9.21468 34.6513 9.5399L35.2267 12.8471C35.3684 13.6652 34.4976 14.2894 33.7531 13.9024L30.7398 12.3398C30.4444 12.1865 30.0906 12.1865 29.7943 12.3398L26.7811 13.9024C26.0365 14.2894 25.1658 13.6652 25.3083 12.8471L25.8828 9.5399C25.9395 9.21468 25.8304 8.88354 25.5908 8.65318L23.1529 6.3106C22.5501 5.73216 22.8815 4.72263 23.7145 4.60237L27.0859 4.11708C27.4165 4.06965 27.7025 3.8647 27.8502 3.56913L29.3564 0.558331C29.7291 -0.18611 30.8051 -0.18611 31.1778 0.558331Z" fill="#FFCC4A"/>
<path fill-rule="evenodd" clip-rule="evenodd" d="M54.0225 0.558331L55.5296 3.56913C55.6773 3.8647 55.9624 4.06965 56.293 4.11708L59.6644 4.60237C60.4973 4.72263 60.8288 5.73216 60.226 6.3106L57.788 8.65318C57.5485 8.88354 57.4394 9.21468 57.4961 9.5399L58.0714 12.8471C58.2131 13.6652 57.3424 14.2894 56.5978 13.9024L53.5845 12.3398C53.2891 12.1865 52.9353 12.1865 52.6391 12.3398L49.6258 13.9024C48.8813 14.2894 48.0105 13.6652 48.153 12.8471L48.7275 9.5399C48.7842 9.21468 48.6752 8.88354 48.4356 8.65318L45.9976 6.3106C45.3948 5.73216 45.7263 4.72263 46.5592 4.60237L49.9306 4.11708C50.2612 4.06965 50.5472 3.8647 50.6949 3.56913L52.2011 0.558331C52.5738 -0.18611 53.6498 -0.18611 54.0225 0.558331Z" fill="#FFCC4A"/>
<path fill-rule="evenodd" clip-rule="evenodd" d="M76.8672 0.558331L78.3743 3.56913C78.522 3.8647 78.8071 4.06965 79.1377 4.11708L82.5091 4.60237C83.3421 4.72263 83.6735 5.73216 83.0707 6.3106L80.6328 8.65318C80.3932 8.88354 80.2841 9.21468 80.3408 9.5399L80.9161 12.8471C81.0578 13.6652 80.1871 14.2894 79.4426 13.9024L76.4293 12.3398C76.1339 12.1865 75.7801 12.1865 75.4838 12.3398L72.4705 13.9024C71.726 14.2894 70.8552 13.6652 70.9978 12.8471L71.5723 9.5399C71.6289 9.21468 71.5199 8.88354 71.2803 8.65318L68.8424 6.3106C68.2395 5.73216 68.571 4.72263 69.404 4.60237L72.7754 4.11708C73.106 4.06965 73.3919 3.8647 73.5396 3.56913L75.0458 0.558331C75.4185 -0.18611 76.4945 -0.18611 76.8672 0.558331Z" fill="#FFCC4A"/>
<path fill-rule="evenodd" clip-rule="evenodd" d="M99.7119 0.558331L101.219 3.56913C101.367 3.8647 101.652 4.06965 101.982 4.11708L105.354 4.60237C106.187 4.72263 106.518 5.73216 105.915 6.3106L103.477 8.65318C103.238 8.88354 103.129 9.21468 103.186 9.5399L103.761 12.8471C103.903 13.6652 103.032 14.2894 102.287 13.9024L99.274 12.3398C98.9786 12.1865 98.6248 12.1865 98.3285 12.3398L95.3152 13.9024C94.5707 14.2894 93.7 13.6652 93.8425 12.8471L94.417 9.5399C94.4737 9.21468 94.3646 8.88354 94.125 8.65318L91.6871 6.3106C91.0843 5.73216 91.4157 4.72263 92.2487 4.60237L95.6201 4.11708C95.9507 4.06965 96.2367 3.8647 96.3844 3.56913L97.8906 0.558331C98.2633 -0.18611 99.3393 -0.18611 99.7119 0.558331Z" fill="#FFCC4A"/>
</svg>
